<svg width="59" height="89" xmlns="http://www.w3.org/2000/svg"><g fill="#434B55" fill-rule="nonzero"><path d="M7.76 3.125a2.748 2.748 0 00-.477-.547 2.33 2.33 0 00-.66-.364c-.25-.092-.5-.137-.774-.137-.5 0-.91.091-1.25.296-.342.182-.615.456-.842.775a3.365 3.365 0 00-.455 1.094 5.775 5.775 0 000 2.506c.09.388.25.752.455 1.071.204.32.5.57.841.752.342.182.751.296 1.251.296.66 0 1.183-.205 1.57-.615.387-.41.614-.957.683-1.618h2.115a4.972 4.972 0 01-.432 1.686 4.055 4.055 0 01-.91 1.277 3.965 3.965 0 01-1.342.797c-.5.182-1.07.274-1.684.274-.75 0-1.455-.137-2.047-.388a4.758 4.758 0 01-1.547-1.094 4.869 4.869 0 01-.955-1.64 5.837 5.837 0 01-.341-2.028 6.1 6.1 0 01.34-2.074 5.213 5.213 0 01.956-1.663c.41-.479.933-.843 1.547-1.117C4.416.391 5.1.254 5.85.254c.546 0 1.07.068 1.547.228.478.16.933.387 1.297.683.387.297.705.684.955 1.117.25.456.41.957.478 1.527H8.011a1.766 1.766 0 00-.25-.684M13.31 8.685c.297.296.729.433 1.275.433.41 0 .75-.091 1.023-.296.296-.205.455-.41.524-.638h1.728c-.273.866-.705 1.48-1.273 1.845-.57.365-1.274.547-2.093.547-.569 0-1.07-.09-1.524-.273a3.15 3.15 0 01-1.16-.775 3.24 3.24 0 01-.728-1.208c-.182-.455-.25-.98-.25-1.526 0-.547.09-1.048.272-1.504a3.86 3.86 0 01.751-1.208 3.203 3.203 0 011.16-.797c.455-.206.956-.297 1.501-.297.615 0 1.138.114 1.593.365.455.228.819.547 1.115.957.295.41.5.866.636 1.367.137.501.182 1.048.137 1.595H12.81c.046.661.205 1.117.5 1.413m2.253-3.783c-.228-.25-.592-.387-1.07-.387-.318 0-.568.046-.795.16a2.24 2.24 0 00-.5.387c-.115.16-.206.319-.274.501-.045.183-.09.342-.09.479h3.207c-.091-.502-.25-.889-.478-1.14M20.795 3.216v1.345h.023c.09-.228.227-.433.364-.616.159-.182.34-.341.546-.478.204-.137.432-.228.66-.32a2.56 2.56 0 01.727-.113c.137 0 .273.023.432.068v1.846a1.375 1.375 0 00-.34-.046c-.137-.022-.251-.022-.365-.022-.364 0-.66.068-.91.182-.25.114-.455.296-.614.501-.16.205-.273.456-.318.73-.069.273-.091.57-.091.91v3.214h-1.98v-7.2h1.866zM28.825 3.216v1.322h-1.456v3.577c0 .342.046.547.16.661.113.114.34.16.66.16.113 0 .227 0 .318-.023.09 0 .204-.023.295-.046v1.527c-.159.023-.364.046-.546.046-.204 0-.41.022-.591.022-.296 0-.592-.022-.865-.068-.273-.046-.523-.114-.727-.25-.205-.115-.364-.297-.501-.525a1.952 1.952 0 01-.182-.866v-4.26h-1.206V3.17h1.206V1.006h1.98V3.17h1.455v.045zM29.826.459h1.979v1.64h-1.98V.46zm1.979 9.958h-1.98v-7.2h1.98v7.2zM32.624 4.538V3.216h1.183V2.67c0-.638.205-1.162.591-1.572.41-.41 1.001-.615 1.82-.615.182 0 .341 0 .523.023.182.022.342.022.524.045v1.481a7.34 7.34 0 00-.728-.045c-.273 0-.455.068-.57.182-.113.114-.181.342-.181.638v.433h1.365v1.322h-1.365v5.856h-1.98v-5.88h-1.182zM38.334.459h1.979v1.64h-1.98V.46zm1.979 9.958h-1.98v-7.2h1.98v7.2zM43.43 8.685c.295.296.727.433 1.273.433.41 0 .75-.091 1.024-.296.296-.205.455-.41.523-.638h1.729c-.273.866-.705 1.48-1.274 1.845-.569.365-1.274.547-2.093.547-.569 0-1.069-.09-1.524-.273a3.15 3.15 0 01-1.16-.775A3.24 3.24 0 0141.2 8.32c-.182-.455-.25-.98-.25-1.526 0-.547.09-1.048.273-1.504a3.86 3.86 0 01.75-1.208 3.203 3.203 0 011.16-.797c.455-.206.956-.297 1.502-.297.614 0 1.137.114 1.592.365.455.228.82.547 1.115.957.296.41.5.866.637 1.367.136.501.182 1.048.136 1.595H42.93c.045.661.205 1.117.5 1.413m2.23-3.783c-.228-.25-.592-.387-1.07-.387-.318 0-.568.046-.796.16-.205.113-.386.25-.5.387-.137.16-.205.319-.273.501-.046.183-.091.342-.091.479h3.207c-.068-.502-.25-.889-.477-1.14M54.12 9.483c-.227.387-.545.66-.91.843-.386.182-.795.25-1.273.25-.546 0-1-.114-1.41-.319a2.794 2.794 0 01-1.001-.843c-.273-.364-.455-.775-.592-1.23a5.135 5.135 0 01-.204-1.459c0-.478.068-.957.204-1.39.137-.455.342-.843.592-1.185a2.94 2.94 0 011-.82c.41-.205.865-.319 1.388-.319.432 0 .842.091 1.206.274.387.182.682.455.91.797h.023V.46h1.979v9.958h-1.888v-.912h-.023v-.022zm-.09-3.555a1.895 1.895 0 00-.296-.73 1.57 1.57 0 00-.523-.5c-.205-.137-.478-.206-.796-.206a1.56 1.56 0 00-1.365.73 2.334 2.334 0 00-.296.729 3.61 3.61 0 00-.09.866c0 .273.022.546.09.843.068.273.182.524.319.752.136.227.318.387.546.524.227.136.477.205.796.205.318 0 .591-.069.819-.205.227-.137.386-.297.523-.524.136-.228.227-.456.273-.752.045-.274.09-.57.09-.866a3.61 3.61 0 00-.09-.866M16.655 26.596h11.51c2.798 0 6.484 0 8.394 1.162 2.093 1.253 3.731 3.509 3.731 6.63 0 3.373-1.774 5.925-4.709 7.133v.091c3.913.798 6.051 3.737 6.051 7.656 0 4.672-3.344 9.138-9.645 9.138H16.655v-31.81zm4.23 13.672h8.463c4.8 0 6.756-1.732 6.756-5.082 0-4.42-3.116-5.036-6.756-5.036h-8.462v10.118zm0 14.56h10.579c3.64 0 5.96-2.233 5.96-5.696 0-4.147-3.344-5.31-6.893-5.31h-9.645v11.006z"/><path d="M52.437 42.5c0 13.354-10.805 24.178-24.158 24.178-13.33 0-24.136-10.824-24.136-24.177S14.95 18.324 28.28 18.324c13.353 0 24.158 10.824 24.158 24.177M28.302 14.632C12.947 14.632.48 27.097.48 42.501c0 15.38 12.443 27.868 27.82 27.868 15.356 0 27.822-12.464 27.822-27.868 0-15.404-12.466-27.869-27.821-27.869M5.622 76.362c-.091-.706-.773-1.23-1.547-1.23-1.387 0-1.91 1.184-1.91 2.415 0 1.162.523 2.347 1.91 2.347.956 0 1.479-.66 1.593-1.572h1.5c-.158 1.754-1.364 2.87-3.093 2.87-2.184 0-3.458-1.617-3.458-3.668 0-2.096 1.274-3.714 3.458-3.714 1.547 0 2.844.911 3.026 2.53H5.622v.022zM10.4 75.815c1.614 0 2.638 1.071 2.638 2.689s-1.024 2.689-2.639 2.689c-1.592 0-2.639-1.071-2.639-2.689.023-1.64 1.047-2.689 2.64-2.689m0 4.307c.955 0 1.25-.82 1.25-1.618 0-.82-.295-1.64-1.25-1.64-.956 0-1.23.82-1.23 1.64 0 .798.296 1.618 1.23 1.618M13.857 75.952h1.32v.957h.022c.25-.638.955-1.094 1.615-1.094.091 0 .205.023.296.046v1.299a3.402 3.402 0 00-.5-.046c-1.024 0-1.388.73-1.388 1.64v2.302h-1.388v-5.104h.023zM17.883 75.952h1.32v.66h.022c.342-.546.888-.797 1.524-.797 1.593 0 2.32 1.299 2.32 2.735 0 1.367-.75 2.643-2.229 2.643-.614 0-1.182-.274-1.524-.775h-.045v2.438h-1.388v-6.904zm3.776 2.552c0-.82-.318-1.64-1.228-1.64-.91 0-1.206.82-1.206 1.64s.319 1.618 1.229 1.618c.91 0 1.205-.775 1.205-1.618M26.368 75.815c1.615 0 2.639 1.071 2.639 2.689s-1.046 2.689-2.639 2.689c-1.592 0-2.639-1.071-2.639-2.689 0-1.64 1.047-2.689 2.64-2.689m0 4.307c.955 0 1.25-.82 1.25-1.618 0-.82-.295-1.64-1.25-1.64-.956 0-1.23.82-1.23 1.64 0 .798.274 1.618 1.23 1.618M29.94 75.952h1.32v.957h.022c.25-.638.955-1.094 1.615-1.094.09 0 .227.023.296.046v1.299a3.402 3.402 0 00-.5-.046c-1.024 0-1.388.73-1.388 1.64v2.302h-1.388v-5.104h.023zM33.716 77.524c.09-1.321 1.251-1.709 2.388-1.709 1.024 0 2.23.228 2.23 1.458v2.644c0 .455.045.934.182 1.14h-1.41c-.046-.16-.092-.32-.092-.502-.432.456-1.092.638-1.706.638-.955 0-1.729-.479-1.729-1.527 0-1.162.865-1.435 1.73-1.55.864-.136 1.66-.09 1.66-.66 0-.593-.41-.684-.91-.684-.523 0-.887.205-.933.775h-1.41v-.023zm3.23 1.026c-.227.205-.728.227-1.16.296-.432.09-.819.228-.819.752s.41.66.864.66c1.092 0 1.138-.865 1.138-1.162v-.546h-.023zM41.2 75.952h1.024v.934H41.2v2.53c0 .478.114.592.591.592.16 0 .296 0 .433-.046v1.094c-.228.046-.546.046-.82.046-.864 0-1.592-.205-1.592-1.208v-3.008h-.841v-.934h.841v-1.527H41.2v1.527zM44.316 75.154H42.93v-1.162h1.387v1.162zm-1.387.798h1.387v5.104H42.93v-5.104zM47.706 75.815c1.615 0 2.639 1.071 2.639 2.689s-1.047 2.689-2.64 2.689c-1.591 0-2.615-1.071-2.615-2.689-.023-1.64 1.024-2.689 2.616-2.689m0 4.307c.955 0 1.251-.82 1.251-1.618 0-.82-.273-1.64-1.251-1.64-.956 0-1.229.82-1.229 1.64 0 .798.273 1.618 1.229 1.618M51.232 75.952h1.32v.706h.022c.364-.57.955-.843 1.547-.843 1.478 0 1.865.843 1.865 2.097v3.144H54.6v-2.871c0-.843-.25-1.253-.888-1.253-.75 0-1.092.433-1.092 1.458v2.666h-1.387v-5.104zM.595 85.386h55.437v3.555H.595zM56.828 73.787h-.319v.889h-.159v-.889h-.318v-.137h.819v.137h-.023zm1.365.889h-.16v-.866l-.34.866h-.114l-.342-.866v.866h-.182V73.65h.273l.319.775.296-.775h.272v1.026h-.022z"/></g></svg>
